<?xml version="1.0" encoding="UTF-8"?>
<!DOCTYPE svg PUBLIC "-//W3C//DTD SVG 1.1//EN" "http://www.w3.org/Graphics/SVG/1.1/DTD/svg11.dtd">
<!-- Creator: CorelDRAW X7 -->
<svg xmlns="http://www.w3.org/2000/svg" xml:space="preserve" width="10mm" height="10mm" version="1.1" style="shape-rendering:geometricPrecision; text-rendering:geometricPrecision; image-rendering:optimizeQuality; fill-rule:evenodd; clip-rule:evenodd"
viewBox="0 0 1000 1000"
 xmlns:xlink="http://www.w3.org/1999/xlink">
 <defs>
  <style type="text/css">
   <![CDATA[
    .fil0 {fill:#2B2A29;fill-rule:nonzero}
   ]]>
  </style>
 </defs>
 <g id="Слой_x0020_1">
  <metadata id="CorelCorpID_0Corel-Layer"/>
  <path class="fil0" d="M500 92c109,0 208,46 280,120 72,74 116,176 116,288 0,113 -44,214 -116,288 -72,74 -171,120 -280,120 -109,0 -208,-46 -280,-120 -72,-74 -116,-175 -116,-288 0,-112 44,-214 116,-288 72,-74 171,-120 280,-120zm266 134c-68,-70 -162,-114 -266,-114 -104,0 -198,44 -266,114 -68,70 -110,167 -110,274 0,107 42,204 110,274 68,70 162,114 266,114 104,0 198,-44 266,-114 68,-70 110,-167 110,-274 0,-107 -42,-204 -110,-274z"/>
  <polygon class="fil0" points="469,785 469,215 531,215 531,785 "/>
  <polygon class="fil0" points="215,469 785,469 785,531 215,531 "/>
 </g>
</svg>
